<?xml version="1.0" standalone="no"?>
<!DOCTYPE svg PUBLIC "-//W3C//DTD SVG 1.1//EN" "http://www.w3.org/Graphics/SVG/1.1/DTD/svg11.dtd" >
<svg xmlns="http://www.w3.org/2000/svg" xmlns:xlink="http://www.w3.org/1999/xlink" version="1.1">
<metadata></metadata>
<defs>
<font id="acumin_promedium" horiz-adv-x="819" >
<font-face units-per-em="2048" ascent="1505" descent="-543" />
<missing-glyph horiz-adv-x="514" />
<glyph horiz-adv-x="0" />
<glyph horiz-adv-x="682" />
<glyph unicode=" "  horiz-adv-x="514" />
<glyph unicode="&#x09;" horiz-adv-x="514" />
<glyph unicode="&#xa0;" horiz-adv-x="514" />
<glyph unicode="!" horiz-adv-x="628" d="M264 1174v249h215v-252l-24 -686h-166zM270 -2v295h199v-295h-199z" />
<glyph unicode="&#x22;" horiz-adv-x="739" d="M102 1325v176h187v-176l-21 -383h-145zM451 1325v176h186v-176l-21 -383h-147z" />
<glyph unicode="#" horiz-adv-x="1226" d="M86 395v164h215l74 303h-189v164h230l86 354h145l-86 -354h264l86 354h144l-84 -354h164l-2 -164h-201l-74 -303h182v-162h-221l-94 -397h-150l97 397l-262 -2l-95 -395h-151l96 395h-174zM451 559h260l73 303h-262z" />
<glyph unicode="$" horiz-adv-x="1077" d="M51 352h201q18 -87 74.5 -139t138.5 -66v469q-211 64 -298 151.5t-87 229.5q0 155 108 253t277 110v137h121v-139q98 -10 173 -45t116.5 -85t63 -101t26.5 -105h-197q-37 150 -182 180v-424q225 -63 317 -162t92 -243q0 -171 -108.5 -271t-300.5 -114v-185h-121v185 q-182 15 -290.5 113t-123.5 251zM279 1020q0 -73 41 -120.5t145 -84.5v391q-96 -10 -141 -60.5t-45 -125.5zM586 143q205 21 205 207q0 82 -45 135.5t-160 94.5v-437z" />
<glyph unicode="%" horiz-adv-x="1818" d="M78 987q0 107 38.5 192.5t118 139t189.5 53.5q160 0 254 -102t94 -281q0 -172 -92 -280.5t-258 -108.5q-162 0 -253 103.5t-91 283.5zM246 989q0 -115 46 -180.5t134 -65.5q87 0 134.5 64t47.5 182q0 117 -48.5 179.5t-135.5 62.5q-83 0 -130.5 -62.5t-47.5 -179.5z M399 0l869 1348h166l-869 -1348h-166zM1063 358q0 108 38 194t117.5 139.5t190.5 53.5q161 0 253.5 -102t92.5 -283q0 -111 -38.5 -197t-119 -137.5t-192.5 -52.5q-160 0 -251 105t-91 280zM1229 360q0 -113 47.5 -179t134.5 -66q86 0 133 64t47 181t-48.5 179.5 t-135.5 62.5q-80 0 -129 -64.5t-49 -177.5z" />
<glyph unicode="&#x26;" horiz-adv-x="1540" d="M100 358q0 124 66.5 218t234.5 198q-84 89 -123.5 158.5t-39.5 159.5q0 148 99 250t267 102q159 0 256.5 -97t97.5 -235q0 -105 -64 -184.5t-212 -169.5l274 -269l273 410h213l-365 -528l379 -371h-270l-221 217q-97 -122 -198.5 -179.5t-250.5 -57.5q-100 0 -181 33 t-131 87.5t-77 120.5t-27 137zM309 381q0 -92 63.5 -158.5t159.5 -66.5q92 0 161 38.5t151 139.5l-338 332q-112 -75 -154.5 -137.5t-42.5 -147.5zM428 1104q0 -58 35.5 -112t116.5 -132q113 72 152.5 126.5t39.5 123.5q0 76 -44 129t-126 53q-79 0 -126.5 -50t-47.5 -138z " />
<glyph unicode="'" horiz-adv-x="378" d="M88 1325v176h203v-176l-21 -383h-164z" />
<glyph unicode="(" horiz-adv-x="704" d="M117 588q0 504 307 913h201q-324 -425 -324 -915q0 -506 324 -940h-201q-135 180 -221 418t-86 524z" />
<glyph unicode=")" horiz-adv-x="704" d="M80 -354q321 421 321 915q0 256 -83 495t-238 445h201q135 -180 221 -418t86 -524q0 -504 -307 -913h-201z" />
<glyph unicode="*" horiz-adv-x="835" d="M49 1165l86 144l230 -191l-27 305h158l-29 -305l233 191l86 -144l-290 -127l288 -131l-84 -143l-235 194l31 -309h-160l31 307l-232 -192l-84 143l289 131z" />
<glyph unicode="+" horiz-adv-x="1435" d="M156 489v175h475v479h176v-479h473v-175h-473v-489h-176v489h-475z" />
<glyph unicode="," horiz-adv-x="452" d="M8 -236q128 279 148 549h204q-14 -146 -64 -294.5t-126 -254.5h-162z" />
<glyph unicode="-" horiz-adv-x="776" d="M117 434v180h542v-180h-542z" />
<glyph unicode="." horiz-adv-x="434" d="M111 0v313h213v-313h-213z" />
<glyph unicode="/" horiz-adv-x="923" d="M88 -104l571 1548h177l-572 -1548h-176z" />
<glyph unicode="0" horiz-adv-x="1157" d="M98 674q0 110 14.5 207.5t50.5 189t90 157t139 105t192 39.5q106 0 189 -38.5t136 -102.5t87.5 -154t48.5 -186.5t14 -206.5q0 -90 -9.5 -171.5t-30.5 -163.5t-58 -148t-88.5 -117.5t-127 -80t-167.5 -28.5q-108 0 -192.5 39.5t-138 104.5t-88 157.5t-48 189.5t-13.5 208 zM309 674q0 -531 271 -531q56 0 99 20t71.5 59t48 86.5t29.5 112t14 125.5t4 136q0 70 -4 129.5t-14.5 121t-29.5 108.5t-47 85t-70 58t-95 20q-66 0 -115 -27t-79.5 -73t-49.5 -115.5t-26 -144.5t-7 -170z" />
<glyph unicode="1" horiz-adv-x="759" d="M84 1004v159q81 20 170.5 72.5t157.5 118.5h149v-1354h-205v1110q-48 -33 -131.5 -65t-140.5 -41z" />
<glyph unicode="2" horiz-adv-x="1087" d="M90 0v12q0 308 406 613q71 54 110 85.5t74.5 66.5t51 63.5t24 62t8.5 76.5q0 105 -55 166t-166 61q-115 0 -174 -59t-80 -180h-197q18 181 133.5 293t317.5 112q90 0 163.5 -22t122 -59t81 -87.5t47 -105t14.5 -113.5q0 -61 -12 -110t-33 -89.5t-65.5 -86.5t-92.5 -86 t-131 -103q-138 -105 -211 -185t-96 -151h694l-29 -174h-905z" />
<glyph unicode="3" horiz-adv-x="1130" d="M86 354h199q20 -94 89.5 -154.5t186.5 -60.5q129 0 194.5 73.5t65.5 186.5q0 125 -71.5 187.5t-206.5 62.5h-101v162h86q125 0 183.5 49t58.5 152q0 88 -57.5 141t-161.5 53q-109 0 -162.5 -49t-73.5 -135h-194q6 52 24 100t53 94.5t83 80.5t119 54.5t157 20.5 q104 0 185.5 -29.5t130.5 -79.5t74.5 -112t25.5 -131q0 -112 -53 -181.5t-125 -97.5v-4q46 -16 85.5 -41.5t74 -65t54 -99t19.5 -132.5q0 -83 -26.5 -156t-80.5 -134.5t-148.5 -97.5t-219.5 -36q-92 0 -168.5 22.5t-128 59t-89 86.5t-56.5 102.5t-25 108.5z" />
<glyph unicode="4" horiz-adv-x="1112" d="M72 338v180l604 830h217v-840h172l-23 -170h-149v-338h-193v338h-628zM264 508h436v321q0 170 7 324q-16 -30 -51.5 -85t-90.5 -134t-97.5 -140t-111 -156.5t-92.5 -129.5z" />
<glyph unicode="5" horiz-adv-x="1126" d="M104 340h203q25 -92 90.5 -146.5t171.5 -54.5q127 0 193.5 84.5t66.5 231.5q0 135 -59.5 214t-189.5 79q-110 0 -169 -42t-96 -126l-186 32q26 118 60.5 347.5t52.5 388.5h753l-28 -172h-559q-8 -80 -56 -361q96 103 275 103q187 0 297 -122t110 -327q0 -101 -27.5 -188 t-82.5 -156.5t-148 -109.5t-213 -40q-186 0 -309.5 96.5t-149.5 268.5z" />
<glyph unicode="6" horiz-adv-x="1136" d="M98 655q0 116 15.5 217t52 194.5t93 160t144.5 106t199 39.5q99 0 177 -30t124.5 -79t72.5 -103.5t32 -112.5h-199q-44 163 -217 163q-282 0 -293 -469q108 177 334 177q192 0 304 -125t112 -324q0 -137 -52 -247.5t-158.5 -178.5t-252.5 -68q-488 0 -488 680zM319 457 q0 -36 7 -75.5t26 -83t48 -77t76.5 -56t107.5 -22.5q67 0 118 25.5t81.5 69t45.5 98t15 117.5q0 58 -12.5 108.5t-40.5 95t-80 70t-123 25.5q-123 0 -196 -76t-73 -219z" />
<glyph unicode="7" horiz-adv-x="980" d="M41 1176v172h895v-162q-178 -241 -322 -568.5t-192 -617.5h-207q43 278 193.5 617.5t316.5 558.5h-684z" />
<glyph unicode="8" horiz-adv-x="1142" d="M90 383q0 67 21 124.5t57 99t76.5 70t85.5 46.5q-183 94 -183 285q0 164 114 264t321 100q191 0 304 -99t113 -261q0 -105 -50 -175.5t-134 -103.5q98 -33 167 -125t69 -219q0 -193 -135.5 -303.5t-354.5 -110.5q-203 0 -337 111t-134 297zM297 391q0 -110 74.5 -181 t201.5 -71q124 0 198.5 65t74.5 187q0 121 -72.5 184.5t-202.5 63.5q-135 0 -204.5 -68.5t-69.5 -179.5zM344 1006q0 -87 59 -143t175 -56q225 0 225 194q0 91 -58.5 149t-169.5 58q-118 0 -174.5 -53t-56.5 -149z" />
<glyph unicode="9" horiz-adv-x="1120" d="M86 918q0 126 53 228t159.5 164t248.5 62q125 0 218 -47t147 -133t80 -195.5t26 -246.5q0 -773 -486 -773q-100 0 -179 28t-128 76t-78 103t-41 119h205q29 -81 83 -121.5t147 -40.5q51 0 93 19.5t69.5 49.5t48.5 75.5t32 87t19 96t10 90t4 80.5q-87 -152 -313 -152 q-190 0 -304 121t-114 310zM293 926q0 -125 66.5 -199t181.5 -74q258 0 258 265q0 30 -5 62.5t-21.5 74.5t-42.5 74t-74 54.5t-111 22.5q-125 0 -188.5 -78t-63.5 -202z" />
<glyph unicode=":" horiz-adv-x="530" d="M162 0v305h207v-305h-207zM162 733v305h207v-305h-207z" />
<glyph unicode=";" horiz-adv-x="534" d="M27 -236q131 281 145 549h205q-10 -152 -65 -303.5t-124 -245.5h-161zM168 725v313h211v-313h-211z" />
<glyph unicode="&#x3c;" horiz-adv-x="1259" d="M168 494v163l924 494v-193l-730 -380l730 -394v-194z" />
<glyph unicode="=" horiz-adv-x="1460" d="M168 236v176h1124v-176h-1124zM168 748v176h1124v-176h-1124z" />
<glyph unicode="&#x3e;" horiz-adv-x="1259" d="M168 -10v194l729 381l-729 393v193l924 -502v-166z" />
<glyph unicode="?" horiz-adv-x="1030" d="M111 1055q2 45 14.5 92.5t44 102t77.5 96.5t122.5 70t171.5 28q88 -1 159.5 -24.5t116 -60.5t75 -86t42.5 -97.5t12 -98.5q0 -107 -41.5 -188t-152.5 -182q-73 -66 -102 -124t-29 -132v-19h-209v33q0 93 41.5 175t154.5 183q79 69 106 128.5t27 129.5q0 80 -51.5 139.5 t-152.5 59.5q-196 0 -230 -225h-196zM412 0v293h209v-293h-209z" />
<glyph unicode="@" horiz-adv-x="1916" d="M127 463q0 260 109.5 465.5t314 323.5t471.5 118q127 0 242 -29.5t212 -89t168.5 -144t111.5 -201t40 -253.5q0 -272 -128 -433t-335 -161q-93 0 -149 38.5t-62 115.5q-56 -76 -123 -114t-165 -38q-130 0 -210.5 92.5t-80.5 264.5q0 152 56 278.5t153 199.5t213 73 q106 0 163.5 -44.5t75.5 -107.5l33 131h180l-123 -569q-20 -95 -0.5 -130.5t78.5 -35.5q112 0 184 119.5t72 312.5q0 264 -167.5 421t-444.5 157q-324 0 -518.5 -208t-194.5 -554q-1 -187 76 -338t223.5 -239.5t337.5 -88.5q263 0 449 105l41 -138q-182 -120 -500 -120 q-173 0 -321.5 58t-254.5 163.5t-166.5 260t-60.5 339.5zM735 428q0 -104 39 -158.5t111 -54.5q92 0 155 69.5t97 223.5q69 311 -148 311q-77 0 -136 -57t-88.5 -145t-29.5 -189z" />
<glyph unicode="A" horiz-adv-x="1361" d="M37 0l502 1423h262l524 -1423h-225l-150 408h-559l-143 -408h-211zM444 588h455q-208 576 -233 667h-2q-16 -55 -45 -144t-85.5 -256.5t-89.5 -266.5z" />
<glyph unicode="B" horiz-adv-x="1335" d="M184 0v1423h559q112 0 199.5 -28.5t141 -78t81 -113t27.5 -138.5q0 -116 -57.5 -196.5t-143.5 -112.5q41 -14 80.5 -39t78.5 -64.5t63 -100.5t24 -134q0 -193 -133.5 -305.5t-343.5 -112.5h-576zM391 172h338q136 0 213.5 62.5t77.5 185.5q0 115 -79 180.5t-243 65.5 h-307v-494zM391 838h318q142 0 206 53.5t64 155.5q0 93 -65 148.5t-181 55.5h-342v-413z" />
<glyph unicode="C" horiz-adv-x="1415" d="M106 707q0 148 41.5 279t120.5 234t206 163.5t286 60.5q125 0 227 -34.5t170.5 -95t110.5 -138t57 -168.5h-211q-19 59 -46.5 104t-69.5 82t-104 56.5t-142 19.5q-109 0 -193 -46.5t-133 -126.5t-73.5 -177t-24.5 -207q0 -85 14 -163t47 -150.5t81.5 -126t123 -85.5 t166.5 -32q77 0 138 21t102 59.5t67.5 79.5t46.5 94h211q-48 -195 -192.5 -311.5t-380.5 -116.5q-157 0 -281.5 56.5t-203.5 155.5t-120 229.5t-41 283.5z" />
<glyph unicode="D" horiz-adv-x="1482" d="M184 0v1423h518q303 0 488.5 -190.5t185.5 -505.5q0 -210 -82.5 -374.5t-238.5 -258.5t-361 -94h-510zM395 176h285q119 0 210.5 41t149 115.5t86.5 173t29 217.5q0 105 -27.5 196.5t-83 165.5t-148.5 117t-214 43h-287v-1069z" />
<glyph unicode="E" horiz-adv-x="1230" d="M184 0v1423h942v-180h-735v-409h703v-179h-703v-477h772l-26 -178h-953z" />
<glyph unicode="F" horiz-adv-x="1165" d="M184 0v1423h928v-180h-721v-440h676v-178h-676v-625h-207z" />
<glyph unicode="G" horiz-adv-x="1501" d="M106 696q0 161 44 297t127.5 236.5t211.5 157.5t287 57q246 0 401 -120.5t185 -315.5h-211q-81 262 -379 262q-95 0 -170.5 -29.5t-126 -81t-84 -123.5t-48.5 -153.5t-15 -175.5q0 -111 25 -207t76 -174.5t137.5 -124t199.5 -45.5q381 0 381 424v14h-383v180h590v-774 h-160q-14 43 -20 182q-131 -202 -437 -202q-151 0 -272 54.5t-199 151.5t-119 227t-41 283z" />
<glyph unicode="H" horiz-adv-x="1499" d="M184 0v1423h211v-587h709v587h211v-1423h-211v657h-709v-657h-211z" />
<glyph unicode="I" horiz-adv-x="579" d="M184 0v1423h211v-1423h-211z" />
<glyph unicode="J" horiz-adv-x="765" d="M59 -6v174q54 -8 134 -8q60 0 99 20t57.5 58.5t25 78.5t6.5 97v1009h211v-1001q0 -237 -91 -339.5t-284 -102.5q-83 0 -158 14z" />
<glyph unicode="K" horiz-adv-x="1323" d="M184 0v1423h209v-686q31 33 287.5 294t380.5 392h260l-604 -600l633 -823h-256l-525 688l-176 -162v-526h-209z" />
<glyph unicode="L" horiz-adv-x="1159" d="M184 0v1423h211v-1245h735l-28 -178h-918z" />
<glyph unicode="M" horiz-adv-x="1783" d="M184 0v1423h316q118 -333 232.5 -681t150.5 -484h2q25 103 154 466.5t257 698.5h306v-1423h-207v592q0 429 10 682h-8q-17 -69 -50.5 -175t-85.5 -256.5t-92 -263.5t-109 -306t-97 -273h-187q-14 44 -130 398t-180.5 559.5t-92.5 318.5h-8q16 -219 16 -719v-557h-197z " />
<glyph unicode="N" horiz-adv-x="1527" d="M184 0v1423h275q59 -98 238.5 -392.5t302 -500t157.5 -274.5h2q-12 151 -12 637v530h196v-1423h-258q-601 1000 -710 1206h-4q12 -187 12 -663v-543h-199z" />
<glyph unicode="O" horiz-adv-x="1544" d="M106 711q0 154 45 287.5t129 232.5t213 156t287 57q198 0 348.5 -92.5t230 -256.5t79.5 -376q0 -150 -42.5 -282t-124.5 -234.5t-212.5 -162.5t-294.5 -60q-155 0 -281 56.5t-207.5 156t-125.5 232t-44 286.5zM328 717q0 -114 28.5 -214.5t82.5 -178t140 -122t193 -44.5 q93 0 168.5 30t126.5 81.5t85 123t49.5 152t15.5 170.5q0 115 -27.5 213.5t-81 174.5t-140 119.5t-196.5 43.5q-112 0 -199 -43.5t-139.5 -119.5t-79 -173.5t-26.5 -212.5z" />
<glyph unicode="P" horiz-adv-x="1296" d="M184 0v1423h549q215 0 344 -112.5t129 -306.5q0 -206 -133.5 -318.5t-349.5 -112.5h-328v-573h-211zM395 750h314q138 0 210 63.5t72 185.5t-75.5 185t-200.5 63h-320v-497z" />
<glyph unicode="Q" horiz-adv-x="1554" d="M106 711q0 154 45 287.5t129 232.5t213 156t287 57q198 0 348.5 -92.5t230 -256.5t79.5 -376q0 -183 -63 -339t-183 -257l340 -238l-125 -145l-399 278q-109 -38 -244 -38q-155 0 -281 56.5t-207.5 156t-125.5 232t-44 286.5zM328 717q0 -114 28.5 -214.5t82.5 -178 t140 -122t193 -44.5q93 0 168.5 30t126.5 81.5t85 123t49.5 152t15.5 170.5q0 115 -27.5 213.5t-81 174.5t-140 119.5t-196.5 43.5q-112 0 -199 -43.5t-139.5 -119.5t-79 -173.5t-26.5 -212.5z" />
<glyph unicode="R" horiz-adv-x="1323" d="M184 0v1423h570q215 0 333.5 -106t118.5 -277q0 -132 -65.5 -218t-169.5 -117q209 -57 209 -363v-61v-42v-47.5t0.5 -42t2 -46t3.5 -37t5.5 -38t8.5 -28.5h-205q-12 29 -17.5 83t-6 93t-0.5 133v27q0 77 -12.5 126.5t-45.5 86t-93 52t-154 15.5h-273v-616h-209zM393 791 h299q155 0 226 57t71 174q0 108 -70.5 166.5t-207.5 58.5h-318v-456z" />
<glyph unicode="S" horiz-adv-x="1253" d="M82 399h213q60 -252 350 -252q151 0 223 61.5t72 164.5q0 107 -72.5 168.5t-273.5 109.5q-253 61 -355 154.5t-102 247.5q0 172 124.5 281.5t356.5 109.5q124 0 221.5 -33.5t156 -90.5t90.5 -123.5t40 -141.5h-215q-43 221 -299 221q-123 0 -190.5 -52t-67.5 -149 q0 -94 68 -143t254 -94q119 -29 206.5 -66.5t140 -77.5t83.5 -91t42 -98.5t11 -107.5q0 -185 -136 -300t-392 -115q-130 0 -231.5 33t-166 91.5t-102 131.5t-49.5 161z" />
<glyph unicode="T" horiz-adv-x="1155" d="M16 1243v180h1123v-180h-455v-1243h-213v1243h-455z" />
<glyph unicode="U" horiz-adv-x="1468" d="M170 567v856h213v-856q0 -116 29.5 -200t81.5 -128t111 -63.5t130 -19.5q81 0 142.5 20.5t109.5 66.5t73 127.5t25 196.5v856h211v-843q0 -598 -565 -598q-94 0 -174.5 18t-153 60.5t-123 108.5t-80.5 167t-30 231z" />
<glyph unicode="V" horiz-adv-x="1325" d="M14 1423h228l243 -700q130 -374 172 -543h5q31 131 178 537l254 706h217l-533 -1423h-248z" />
<glyph unicode="W" horiz-adv-x="1923" d="M43 1423h225q42 -183 112 -476t111 -470.5t52 -249.5h2q23 109 150 577t165 619h203q268 -1010 301 -1187h2q21 116 77 334t135 505t95 348h207l-410 -1423h-223q-26 102 -99.5 379.5t-126 480.5t-69.5 285h-2q-15 -76 -56.5 -236.5t-76.5 -288t-96.5 -348t-75.5 -272.5 h-223z" />
<glyph unicode="X" horiz-adv-x="1196" d="M-8 0l479 719l-463 704h246l346 -538h2l354 538h230l-469 -686l487 -737h-246l-364 569h-2l-367 -569h-233z" />
<glyph unicode="Y" horiz-adv-x="1220" d="M-12 1423h241q354 -649 385 -710q52 108 394 710h225l-514 -868q-8 -16 -8 -37v-518h-213v518q0 21 -11 39z" />
<glyph unicode="Z" horiz-adv-x="1230" d="M61 0v160l850 1083h-809v180h1053v-176l-833 -1069h862l-29 -178h-1094z" />
<glyph unicode="[" horiz-adv-x="706" d="M172 -354v1855h457v-158h-279v-1538h279v-159h-457z" />
<glyph unicode="\" horiz-adv-x="923" d="M88 1444h176l572 -1548h-177z" />
<glyph unicode="]" horiz-adv-x="706" d="M78 -195h280v1536h-280v160h457v-1855h-457v159z" />
<glyph unicode="^" horiz-adv-x="991" d="M72 637l346 733h157l345 -733h-166l-262 577l-254 -577h-166z" />
<glyph unicode="_" horiz-adv-x="1087" d="M2 -160h1085v-104h-1085v104z" />
<glyph unicode="`" d="M41 1522h248l256 -312h-187z" />
<glyph unicode="a" horiz-adv-x="1093" d="M80 295q0 171 128 256.5t365 85.5h172v84q0 38 -8 68t-28.5 60t-64.5 47t-109 17q-59 0 -100 -12.5t-62.5 -38t-31.5 -49t-17 -59.5h-195q6 62 28.5 114t68.5 99t126 74q78 26 181 26h8q401 0 401 -344v-487q0 -168 14 -236h-190q-11 31 -18 129q-79 -154 -316 -154 q-89 0 -159 27.5t-111 73.5t-61.5 102t-20.5 117zM285 307q0 -79 51 -128.5t141 -49.5q69 0 119.5 19t79 48.5t45.5 76.5t22 91.5t5 104.5v33h-160q-153 0 -228 -47t-75 -148z" />
<glyph unicode="b" horiz-adv-x="1179" d="M147 0q3 176 3 348v1153h200v-600q93 166 326 166q196 0 311 -145.5t115 -378.5q0 -159 -50.5 -286t-155 -204.5t-247.5 -77.5q-118 0 -188 39.5t-113 116.5q0 -73 -8 -131h-193zM340 518q0 -375 278 -375q131 0 205 106t74 290q0 165 -71 262.5t-201 97.5 q-151 0 -218 -96.5t-67 -284.5z" />
<glyph unicode="c" horiz-adv-x="1048" d="M80 516q0 112 32 211.5t91.5 175.5t152.5 120t207 44q88 0 161 -24.5t119 -61.5t78.5 -85.5t47 -93t18.5 -87.5h-199q-42 186 -229 186q-129 0 -200.5 -102.5t-71.5 -276.5q0 -177 70 -280t196 -103q173 0 235 183h199q-17 -71 -49 -130t-82.5 -109.5t-129 -79 t-177.5 -28.5q-219 0 -344 146t-125 395z" />
<glyph unicode="d" horiz-adv-x="1181" d="M78 510q0 161 56 287t163 198t250 72q120 0 190.5 -37.5t96.5 -89.5v561h200v-1208q0 -193 2 -293h-194q-8 58 -8 141q-81 -166 -322 -166q-199 0 -316.5 147.5t-117.5 387.5zM287 516q0 -177 74 -275t196 -98q85 0 143 30t87.5 87t41 122t11.5 153q0 71 -6.5 123.5 t-23.5 100t-47 77t-78 46.5t-114 17q-134 0 -209 -100.5t-75 -282.5z" />
<glyph unicode="e" horiz-adv-x="1083" d="M78 510q0 119 30 219.5t88 176t150.5 118.5t210.5 43q98 0 177 -30t129.5 -79t84.5 -115t48 -134t14 -140q0 -57 -4 -86h-725q2 -152 73.5 -247t196.5 -95q56 0 98 12.5t68.5 36.5t41.5 47t29 56h203q-14 -45 -33.5 -85t-56.5 -84t-83.5 -75.5t-117 -52.5t-155.5 -21 q-96 0 -175 30t-132.5 80.5t-90 119.5t-53 145.5t-16.5 159.5zM287 621h520q-2 128 -66 209t-186 81q-241 0 -268 -290z" />
<glyph unicode="f" horiz-adv-x="595" d="M18 883v159h164v119q0 77 16.5 140t52 114t97 79t144.5 28q77 0 118 -13v-168q-34 9 -86 9q-76 0 -108.5 -47t-32.5 -156v-105h205v-159h-205v-883h-201v883h-164z" />
<glyph unicode="g" horiz-adv-x="1173" d="M78 520q0 247 128.5 397t323.5 150q132 0 204.5 -48t94.5 -110q3 77 9 133h190q0 -29 -1 -138t-1 -163v-641q0 -260 -115.5 -394t-371.5 -134q-94 0 -169.5 20.5t-122 53t-79.5 76.5t-47.5 85.5t-20.5 86.5h205q22 -80 84.5 -123t159.5 -43q83 0 139 25t86.5 76.5 t42.5 116.5t12 158v78q-43 -87 -119.5 -131.5t-199.5 -44.5q-194 0 -313 143.5t-119 370.5zM287 528q0 -160 74.5 -256t197.5 -96q153 0 215 93.5t62 271.5q0 180 -59 269t-212 89q-132 0 -205 -101t-73 -270z" />
<glyph unicode="h" horiz-adv-x="1171" d="M150 0v1501h200v-606q102 172 320 172q69 0 129 -20.5t111.5 -65t81.5 -125t30 -190.5v-666h-201v633q0 264 -215 264q-256 0 -256 -330v-567h-200z" />
<glyph unicode="i" horiz-adv-x="499" d="M150 0v1042h200v-1042h-200zM150 1270v231h200v-231h-200z" />
<glyph unicode="j" horiz-adv-x="499" d="M-27 -256q12 -2 37 -2q85 0 112.5 44t27.5 155v1101h200v-1065q0 -224 -64 -314.5t-239 -90.5q-38 0 -74 4v168zM150 1270v231h200v-231h-200z" />
<glyph unicode="k" horiz-adv-x="1054" d="M150 0v1501h200v-944q49 58 218 243t220 242h238l-387 -403l430 -639h-233l-334 510l-152 -148v-362h-200z" />
<glyph unicode="l" horiz-adv-x="499" d="M150 0v1501h200v-1501h-200z" />
<glyph unicode="m" horiz-adv-x="1742" d="M147 1042h193q8 -62 8 -153q97 178 301 178q107 0 181 -49.5t104 -130.5q107 180 330 180q67 0 124.5 -21t104 -64.5t73.5 -119.5t27 -178v-684h-196v662q0 46 -9.5 85.5t-31 74.5t-61.5 55t-95 20q-116 0 -172.5 -79t-56.5 -220v-598h-197v653q0 52 -8.5 93t-28.5 76.5 t-59.5 55t-95.5 19.5q-116 0 -175 -84.5t-59 -234.5v-578h-198v774q0 139 -3 268z" />
<glyph unicode="n" horiz-adv-x="1169" d="M147 1042h197q8 -62 8 -163q85 188 322 188q157 0 252.5 -100t95.5 -297v-670h-201v645q0 252 -211 252q-132 0 -195 -90t-63 -250v-557h-202v780q0 142 -3 262z" />
<glyph unicode="o" horiz-adv-x="1136" d="M78 520q0 239 133 393t364 154q219 0 351.5 -149t132.5 -394q0 -115 -32.5 -214.5t-94 -174t-156.5 -117.5t-213 -43q-148 0 -259 71t-168.5 194t-57.5 280zM285 522q0 -170 77 -275.5t209 -105.5q133 0 208 102.5t75 276.5q0 176 -75.5 278.5t-211.5 102.5t-209 -101 t-73 -278z" />
<glyph unicode="p" horiz-adv-x="1177" d="M147 1042h195q8 -66 8 -157q43 82 126 132t206 50q184 0 301 -141.5t117 -376.5q0 -270 -129 -422t-326 -152q-211 0 -295 146v-529h-200v1196q0 131 -3 254zM340 522q0 -188 62 -283.5t210 -95.5q136 0 208.5 105t72.5 293q0 164 -70 261t-196 97q-152 0 -219.5 -93.5 t-67.5 -283.5z" />
<glyph unicode="q" horiz-adv-x="1177" d="M78 510q0 127 36.5 233t98.5 176.5t145.5 109t178.5 38.5q128 0 201 -44.5t96 -104.5q0 46 8 124h190q-2 -104 -2 -286v-1164h-196v551q-87 -168 -322 -168q-89 0 -167.5 35t-138 100.5t-94 168.5t-34.5 231zM287 518q0 -164 70 -269.5t204 -105.5q80 0 134.5 26.5 t85.5 78.5t44 119t13 159q0 93 -12.5 158.5t-42.5 115.5t-83.5 74.5t-132.5 24.5q-136 0 -208 -104t-72 -277z" />
<glyph unicode="r" horiz-adv-x="737" d="M147 1042h197q6 -44 6 -206q41 105 130.5 166.5t217.5 64.5v-199q-168 -3 -258 -91t-90 -281v-496h-200v760q0 78 -1.5 169.5t-1.5 112.5z" />
<glyph unicode="s" horiz-adv-x="985" d="M61 301h201q42 -170 244 -170q199 0 199 148q0 70 -48.5 107.5t-187.5 72.5q-113 27 -186.5 59t-112.5 71.5t-53.5 81t-14.5 99.5q0 57 22 108.5t66.5 94.5t121 68.5t175.5 25.5q100 0 177.5 -26.5t123.5 -71.5t70 -96.5t29 -108.5h-193q-35 151 -215 151q-94 0 -136 -37 t-42 -92q0 -57 45 -88.5t182 -64.5q96 -22 164.5 -49.5t110.5 -57.5t66.5 -68t33 -75.5t8.5 -87.5q0 -142 -107.5 -231t-305.5 -89q-199 0 -307 88.5t-130 237.5z" />
<glyph unicode="t" horiz-adv-x="669" d="M23 883v159h176v304h200v-304h226v-159h-226v-592q0 -77 25.5 -111.5t91.5 -34.5q56 0 86 9v-150q-53 -18 -162 -18q-127 0 -184 65t-57 199v633h-176z" />
<glyph unicode="u" horiz-adv-x="1150" d="M145 358v684h201v-641q0 -254 205 -254q135 0 192.5 81t57.5 270v544h200v-739q0 -54 1.5 -163.5t1.5 -139.5h-197q-6 40 -6 150q-82 -175 -309 -175q-72 0 -132 20t-109.5 63t-77.5 119.5t-28 180.5z" />
<glyph unicode="v" horiz-adv-x="1005" d="M23 1042h215q218 -676 262 -858h2q4 21 11 48t18 64.5t22 72.5t28.5 89t31.5 95t37.5 110t39 115.5t44.5 129.5t46 134h203l-381 -1042h-217z" />
<glyph unicode="w" horiz-adv-x="1585" d="M47 1042h213q193 -746 211 -858h2q30 149 229 858h195q200 -747 217 -839h2q45 200 219 839h203l-319 -1042h-218q-34 133 -88.5 341t-83 319.5t-38.5 164.5h-3q-3 -19 -8 -44t-14 -62t-17 -68.5t-22.5 -85.5t-24 -90.5t-29.5 -107.5t-31 -111t-35 -126t-36 -130h-223z " />
<glyph unicode="x" horiz-adv-x="944" d="M2 0l344 518l-336 524h228q218 -353 233 -376h2q6 10 89.5 140.5t152.5 235.5h225l-350 -499l352 -543h-231q-221 364 -242 399h-2q-13 -21 -92.5 -152.5t-149.5 -246.5h-223z" />
<glyph unicode="y" horiz-adv-x="999" d="M18 1042h218q231 -688 276 -862h2q53 202 264 862h203l-371 -1087q-78 -229 -159 -306t-246 -77q-53 0 -117 6v172q41 -6 84 -6q94 0 143 46.5t93 170.5z" />
<glyph unicode="z" horiz-adv-x="940" d="M53 0v160l584 717h-555v165h784v-165l-575 -711h604l-29 -166h-813z" />
<glyph unicode="{" horiz-adv-x="763" d="M55 494v163q71 0 117 15t68.5 47.5t30.5 69.5t8 94v258q0 177 98 268.5t260 91.5h47v-149h-31q-100 0 -144 -56t-44 -166v-245q0 -268 -205 -307q108 -23 156.5 -99.5t48.5 -212.5v-243q0 -111 51 -170.5t141 -59.5h27v-149h-47q-71 0 -133 19.5t-113.5 60.5t-81.5 113 t-30 167v264q0 55 -7 90.5t-29 69t-68.5 49.5t-119.5 17z" />
<glyph unicode="|" horiz-adv-x="593" d="M207 -537v2136h180v-2136h-180z" />
<glyph unicode="}" horiz-adv-x="763" d="M55 -207h31q99 0 143.5 56t44.5 165v246q0 268 205 307q-108 24 -156.5 100.5t-48.5 211.5v245q0 109 -51 168.5t-141 59.5h-27v149h47q71 0 133 -19.5t114 -60.5t82 -112t30 -166v-266q0 -43 4 -72.5t17 -60.5t36.5 -49.5t65 -30t100.5 -11.5v-164q-57 0 -98 -11 t-65 -29t-37.5 -48.5t-18 -62t-4.5 -76.5v-258q0 -177 -98 -268.5t-261 -91.5h-47v149z" />
<glyph unicode="~" horiz-adv-x="1380" d="M178 412v65q-3 143 64.5 209t173.5 66q70 0 153 -29t145.5 -63.5t130 -63.5t109.5 -29q52 0 75.5 33t23.5 107v36h151v-45q0 -295 -237 -295q-66 0 -147.5 28.5t-144.5 63t-132 63t-113 28.5q-100 0 -100 -133v-41h-152z" />
<glyph unicode="&#xa1;" horiz-adv-x="522" d="M121 -131l24 686h166l27 -686v-250h-217v250zM131 750v292h201v-292h-201z" />
<glyph unicode="&#xa2;" horiz-adv-x="1099" d="M100 666q0 202 110.5 344t305.5 166v143h123v-141q99 -7 176 -42t119.5 -84.5t64.5 -97.5t27 -94h-199q-44 137 -188 154v-692q74 9 118 46t70 107h199q-27 -130 -128 -216t-259 -101v-185h-123v187q-191 20 -303.5 157t-112.5 349zM305 672q0 -135 54 -229.5t157 -118.5 v688q-106 -21 -158.5 -109t-52.5 -231z" />
<glyph unicode="&#xa3;" horiz-adv-x="1064" d="M45 610v156h174q-4 90 -4 156q0 205 97.5 326.5t291.5 121.5q79 0 143.5 -21.5t105.5 -55.5t70 -80t42 -91.5t18 -93.5h-195q-31 174 -188 174q-101 0 -141.5 -66t-40.5 -196q0 -68 4 -174h303v-156h-299v-35q0 -273 -104 -399h706l-27 -176h-929v162q85 44 120 141.5 t35 257.5v49h-182z" />
<glyph unicode="&#xa4;" horiz-adv-x="1110" d="M63 322l144 145q-60 110 -60 240q0 129 62 237l-146 148l113 118l141 -145q103 73 242 76q139 0 244 -76l141 145l113 -118l-146 -150q58 -99 58 -231q0 -130 -58 -240l146 -149l-113 -119l-141 143q-107 -76 -246 -76q-136 0 -244 78l-137 -145zM315 709 q0 -140 70.5 -212.5t171.5 -72.5q109 0 174.5 69.5t65.5 215.5q0 126 -61.5 201t-178.5 75q-115 0 -178.5 -75t-63.5 -201z" />
<glyph unicode="&#xa5;" horiz-adv-x="993" d="M-8 1348h227q169 -306 217.5 -397.5t63.5 -131.5h2q32 72 284 529h211l-374 -623h237v-133h-270v-127h270v-133h-270v-332h-201v332h-266v133h266v127h-266v133h235z" />
<glyph unicode="&#xa6;" horiz-adv-x="487" d="M166 367h170v-734h-170v734zM166 682v729h170v-729h-170z" />
<glyph unicode="&#xa7;" horiz-adv-x="1161" d="M84 563q0 92 49 172t129 129q-82 76 -82 205q0 147 106.5 242.5t297.5 95.5q75 0 137.5 -15t105 -40.5t74.5 -57t51 -68.5t28.5 -70t12.5 -66h-190q-18 68 -72.5 115.5t-157.5 47.5q-104 0 -153 -44t-49 -119q0 -34 13 -61t32.5 -46.5t59 -41t75.5 -36.5t98 -40 q9 -3 13 -5q205 -83 297 -177t92 -241q0 -183 -152 -301q80 -73 80 -213q0 -161 -114 -254.5t-312 -93.5q-201 0 -319 89.5t-140 250.5h199q20 -83 85.5 -133.5t180.5 -50.5q225 0 225 176q0 57 -24 95t-90 75t-195 82q-219 79 -305 168.5t-86 230.5zM268 594q0 -51 16 -87 t72 -76.5t158 -78.5q197 -72 264 -116q38 29 61 77t23 99q0 89 -51 146.5t-197 121.5q-141 58 -229 102q-117 -75 -117 -188z" />
<glyph unicode="&#xa8;" d="M133 1270v231h172v-231h-172zM514 1270v231h170v-231h-170z" />
<glyph unicode="&#xa9;" horiz-adv-x="1615" d="M96 713q0 206 92 373t253.5 261.5t359.5 94.5t357.5 -93t250 -260t90.5 -376t-91 -377t-250.5 -262t-356.5 -94q-152 0 -282.5 53.5t-223.5 148.5t-146 232t-53 299zM217 707q0 -174 76 -315t209 -220.5t297 -79.5q123 0 229.5 43.5t184 122.5t121.5 196t44 259 q0 270 -163.5 444t-415.5 174q-123 0 -229.5 -43t-184.5 -121.5t-123 -197t-45 -262.5zM438 713q0 179 102.5 297t270.5 118q79 0 142.5 -24t103.5 -64t63 -86.5t29 -97.5h-141q-38 150 -197 150q-101 0 -163 -75.5t-62 -211.5q0 -134 62.5 -211.5t162.5 -77.5 q146 0 197 141l139 2q-30 -125 -116 -197.5t-222 -72.5q-164 0 -267.5 114t-103.5 296z" />
<glyph unicode="&#xaa;" horiz-adv-x="731" d="M45 735q0 113 81 168t230 55h123v50q0 116 -125 116q-62 0 -90.5 -26.5t-36.5 -75.5h-151q5 42 20.5 76.5t46.5 66.5t86.5 50t130.5 18q81 0 138 -20.5t85.5 -56.5t40 -74t11.5 -83v-309q0 -80 4 -158h-147q-2 11 -3 27.5t-2 36t-2 27.5q-59 -99 -206 -99 q-111 0 -172.5 59.5t-61.5 151.5zM203 752q0 -47 30 -76t93 -29q79 0 119 50.5t40 138.5v18h-116q-84 0 -125 -24.5t-41 -77.5z" />
<glyph unicode="&#xab;" horiz-adv-x="1140" d="M115 532l313 398h184l-305 -398l307 -401h-186zM524 532l312 398h188l-309 -398l311 -401h-190z" />
<glyph unicode="&#xac;" horiz-adv-x="1460" d="M156 659v177h1124v-668h-178v491h-946z" />
<glyph unicode="&#xad;" horiz-adv-x="776" d="M117 434v180h542v-180h-542z" />
<glyph unicode="&#xae;" horiz-adv-x="720" d="M41 1096q0 148 95 248t243 100q149 0 242.5 -101.5t93.5 -246.5q0 -151 -93.5 -251t-242.5 -100q-145 0 -241.5 100t-96.5 251zM119 1094q0 -115 74.5 -195t185.5 -80q123 0 189.5 75.5t66.5 199.5q0 120 -71 199t-185 79q-122 0 -191 -80.5t-69 -197.5zM242 930v342h149 q60 0 98.5 -23t38.5 -75q0 -31 -17.5 -52t-39.5 -28q47 -16 47 -90q0 -49 4 -74h-86q-8 24 -8 71q0 34 -11 47t-44 13h-45v-131h-86zM330 1124h53q53 0 53 45q0 22 -12 31.5t-41 9.5h-53v-86z" />
<glyph unicode="&#xaf;" d="M121 1278v158h577v-158h-577z" />
<glyph unicode="&#xb0;" horiz-adv-x="671" d="M63 1116q0 123 80.5 204t200.5 81q127 0 204 -80.5t77 -196.5q0 -127 -83 -205.5t-202 -78.5q-122 0 -199.5 77.5t-77.5 198.5zM186 1118q0 -73 43.5 -122.5t112.5 -49.5q73 0 116.5 49t43.5 127q0 70 -41.5 122t-118.5 52q-73 0 -114.5 -51t-41.5 -127z" />
<glyph unicode="&#xb1;" horiz-adv-x="1460" d="M168 0v162h1126v-162h-1126zM168 764v160h481v452h164v-452h479v-160h-479v-459h-164v459h-481z" />
<glyph unicode="&#xb2;" horiz-adv-x="747" d="M70 1432q11 122 94 196t215 74q78 0 137 -24t91 -62.5t47.5 -79.5t15.5 -82q0 -49 -12 -85.5t-42 -68t-65 -55.5t-96 -59q-161 -96 -191 -178h441l-25 -129h-604v10q0 112 62.5 206t199.5 179q104 63 135 94t31 80q0 56 -33.5 89.5t-97.5 33.5q-126 0 -150 -141z" />
<glyph unicode="&#xb3;" horiz-adv-x="768" d="M57 1116h154q11 -53 56 -89t114 -36q72 0 110.5 35t38.5 92q0 121 -151 121h-76v135h66q133 0 133 94q0 46 -32.5 77.5t-100.5 31.5q-70 0 -102 -32t-46 -81h-147q3 26 12 54t31 61.5t53.5 59.5t85 43.5t119.5 17.5q139 0 213 -63t74 -160q0 -63 -35.5 -104.5 t-81.5 -57.5q61 -17 106 -67.5t45 -127.5q0 -48 -17 -91t-52.5 -80t-99 -59t-148.5 -22q-73 0 -130.5 18.5t-91.5 45.5t-57 62.5t-31.5 64.5t-11.5 57z" />
<glyph unicode="&#xb4;" d="M276 1210l259 312h245l-317 -312h-187z" />
<glyph unicode="&#xb5;" horiz-adv-x="1142" d="M145 358v684h201v-643q0 -41 4.5 -75t18 -67.5t35 -56t57.5 -36.5t84 -14q116 0 183 79t67 244v569h200v-739q0 -252 4 -303h-194q-10 58 -10 156q-42 -88 -108 -132t-177 -44q-113 0 -176 79q6 -163 10 -477h-199q1 61 1 212t-0.5 336.5t-0.5 227.5z" />
<glyph unicode="&#xb6;" horiz-adv-x="1245" d="M90 799q0 240 125.5 377t362.5 137h260q5 101 8 117h147q-2 -39 -2 -164v-1585h-153v600h-254q-240 -1 -367 135.5t-127 382.5zM561 813q0 -163 15 -228q34 -143 163 -143h97v719h-95q-40 0 -70 -12t-49 -38t-31 -54t-18 -73t-8.5 -80.5t-3.5 -90.5z" />
<glyph unicode="&#xb7;" horiz-adv-x="434" d="M111 410v313h213v-313h-213z" />
<glyph unicode="&#xb8;" d="M215 -344q58 -21 129 -21q107 0 107 68q0 84 -205 88v59l131 170l137 -20l-84 -102q33 -6 62 -17.5t61.5 -32.5t52 -58t19.5 -85q0 -59 -24 -101t-65 -63t-82.5 -30t-88.5 -9q-94 0 -150 25v129z" />
<glyph unicode="&#xb9;" horiz-adv-x="516" d="M47 1466v123q126 20 219 113h111v-825h-164v626q-29 -14 -82.5 -25.5t-83.5 -11.5z" />
<glyph unicode="&#xba;" horiz-adv-x="782" d="M55 877q0 163 95 259.5t245 96.5q153 0 242.5 -96.5t89.5 -257.5q-1 -170 -96 -262.5t-246 -92.5q-147 0 -238.5 97t-91.5 256zM213 879q0 -106 47.5 -171t128.5 -65q87 0 133.5 59.5t46.5 176.5q-3 111 -48 173t-132 62q-84 0 -130 -62t-46 -173z" />
<glyph unicode="&#xbb;" horiz-adv-x="1140" d="M115 131l311 397l-311 402h190l309 -402l-309 -397h-190zM526 131l308 397l-308 402h187l313 -402l-313 -397h-187z" />
<glyph unicode="&#xbc;" horiz-adv-x="1611" d="M68 1124v123q126 20 219 113h110v-825h-164v626q-29 -14 -82 -25.5t-83 -11.5zM227 2l879 1348h151l-876 -1348h-154zM874 207v123l363 479h193v-479h122l-12 -123h-110v-207h-152v207h-404zM1030 330h248v155q0 121 6 195q-15 -24 -60 -86t-105.5 -143.5t-88.5 -120.5z " />
<glyph unicode="&#xbd;" horiz-adv-x="1681" d="M74 1124v123q126 20 219 113h110v-825h-163v626q-29 -14 -82.5 -25.5t-83.5 -11.5zM223 0l879 1348h151l-876 -1348h-154zM983 553q11 122 94 196t215 74q78 0 137 -24t91 -62.5t47.5 -79.5t15.5 -82q0 -49 -12 -85.5t-42 -68t-65 -55.5t-96 -59q-160 -96 -190 -178h440 l-25 -129h-604v10q0 112 62.5 206t199.5 179q104 63 135 94t31 80q0 56 -33.5 89.5t-97.5 33.5q-125 0 -149 -141z" />
<glyph unicode="&#xbe;" horiz-adv-x="1783" d="M86 774h154q11 -53 56 -89t114 -36q72 0 110.5 35t38.5 92q0 121 -151 121h-76v135h65q133 0 133 94q0 46 -32.5 77.5t-100.5 31.5q-70 0 -101.5 -31.5t-45.5 -81.5h-148q3 26 12 54t31 61.5t53.5 59.5t85 43.5t119.5 17.5q139 0 213 -63t74 -160q0 -63 -35.5 -104.5 t-81.5 -57.5q62 -17 107 -67.5t45 -127.5q0 -48 -17 -91t-52.5 -80t-99 -59t-148.5 -22q-73 0 -130.5 18.5t-91.5 45.5t-57 62.5t-31.5 64.5t-11.5 57zM451 2l878 1348h152l-877 -1348h-153zM1059 207v123l362 479h193v-479h123l-13 -123h-110v-207h-152v207h-403zM1214 330 h248v155q0 121 6 195q-15 -24 -60 -86t-105.5 -143.5t-88.5 -120.5z" />
<glyph unicode="&#xbf;" horiz-adv-x="927" d="M47 -39q0 108 42.5 193.5t150.5 183.5q74 68 103.5 124.5t29.5 127.5v18h209v-35q0 -91 -42 -170t-155 -182q-81 -73 -110 -132t-29 -126q0 -81 55.5 -142t157.5 -61q215 0 243 238h181q-1 -55 -13.5 -107t-44 -106.5t-78.5 -94.5t-124 -65.5t-174 -25.5 q-102 0 -181.5 31t-126.5 83t-70.5 115t-23.5 133zM373 750v292h209v-292h-209z" />
<glyph unicode="&#xc0;" horiz-adv-x="1361" d="M37 0l502 1423h262l524 -1423h-225l-150 408h-559l-143 -408h-211zM240 1831h262l274 -283h-198zM444 588h455q-208 576 -233 667h-2q-16 -55 -45 -144t-85.5 -256.5t-89.5 -266.5z" />
<glyph unicode="&#xc1;" horiz-adv-x="1361" d="M37 0l502 1423h262l524 -1423h-225l-150 408h-559l-143 -408h-211zM444 588h455q-208 576 -233 667h-2q-16 -55 -45 -144t-85.5 -256.5t-89.5 -266.5zM561 1548l297 283h260l-354 -283h-203z" />
<glyph unicode="&#xc2;" horiz-adv-x="1361" d="M37 0l502 1423h262l524 -1423h-225l-150 408h-559l-143 -408h-211zM295 1548l276 271h207l266 -271h-204l-166 164l-174 -164h-205zM444 588h455q-208 576 -233 667h-2q-16 -55 -45 -144t-85.5 -256.5t-89.5 -266.5z" />
<glyph unicode="&#xc3;" horiz-adv-x="1361" d="M37 0l502 1423h262l524 -1423h-225l-150 408h-559l-143 -408h-211zM317 1565v51q0 109 46 156t133 47q55 0 121 -26.5t121.5 -52.5t84.5 -26q30 0 46 19t16 67v21h137v-43q0 -119 -45.5 -169t-134.5 -50q-50 0 -114 26.5t-121.5 53t-90.5 26.5q-57 0 -57 -66v-34h-142z M444 588h455q-208 576 -233 667h-2q-16 -55 -45 -144t-85.5 -256.5t-89.5 -266.5z" />
<glyph unicode="&#xc4;" horiz-adv-x="1361" d="M37 0l502 1423h262l524 -1423h-225l-150 408h-559l-143 -408h-211zM383 1573v231h172v-231h-172zM444 588h455q-208 576 -233 667h-2q-16 -55 -45 -144t-85.5 -256.5t-89.5 -266.5zM786 1573v231h170v-231h-170z" />
<glyph unicode="&#xc5;" horiz-adv-x="1361" d="M37 0l502 1423h262l524 -1423h-225l-150 408h-559l-143 -408h-211zM444 588h455q-208 576 -233 667h-2q-16 -55 -45 -144t-85.5 -256.5t-89.5 -266.5zM446 1700q0 86 60.5 144.5t163.5 58.5q102 0 162.5 -57t60.5 -144q0 -88 -61.5 -145.5t-161.5 -57.5q-102 0 -163 57 t-61 144zM565 1704q0 -44 26.5 -75.5t78.5 -31.5q50 0 77 30t27 73t-27 74.5t-77 31.5q-52 0 -78.5 -30t-26.5 -72z" />
<glyph unicode="&#xc6;" horiz-adv-x="1990" d="M-47 0l876 1423h1057v-182h-735v-405h702v-181h-702v-475h772l-27 -180h-952v469h-475l-289 -469h-227zM567 649h377v611h-6z" />
<glyph unicode="&#xc7;" horiz-adv-x="1415" d="M106 707q0 148 41.5 279t120.5 234t206 163.5t286 60.5q125 0 227 -34.5t170.5 -95t110.5 -138t57 -168.5h-211q-19 59 -46.5 104t-69.5 82t-104 56.5t-142 19.5q-109 0 -193 -46.5t-133 -126.5t-73.5 -177t-24.5 -207q0 -85 14 -163t47 -150.5t81.5 -126t123 -85.5 t166.5 -32q77 0 138 21t102 59.5t67.5 79.5t46.5 94h211q-43 -174 -164.5 -287t-316.5 -137l-74 -88q33 -6 62 -17.5t61.5 -32.5t52 -58t19.5 -85q0 -59 -24 -101t-65 -63t-82.5 -30t-88.5 -9q-94 0 -150 25v129q58 -21 129 -21q107 0 107 68q0 84 -205 88v59l102 134 q-188 15 -321.5 116t-197 256.5t-63.5 350.5z" />
<glyph unicode="&#xc8;" horiz-adv-x="1230" d="M184 0v1423h942v-180h-735v-409h703v-179h-703v-477h772l-26 -178h-953zM254 1849h262l275 -282h-199z" />
<glyph unicode="&#xc9;" horiz-adv-x="1230" d="M184 0v1423h942v-180h-735v-409h703v-179h-703v-477h772l-26 -178h-953zM530 1563l297 282h260l-354 -282h-203z" />
<glyph unicode="&#xca;" horiz-adv-x="1230" d="M184 0v1423h942v-180h-735v-409h703v-179h-703v-477h772l-26 -178h-953zM281 1559l276 270h207l266 -270h-205l-166 163l-174 -163h-204z" />
<glyph unicode="&#xcb;" horiz-adv-x="1230" d="M184 0v1423h942v-180h-735v-409h703v-179h-703v-477h772l-26 -178h-953zM371 1581v231h172v-231h-172zM774 1581v231h170v-231h-170z" />
<glyph unicode="&#xcc;" horiz-adv-x="579" d="M-137 1837h262l274 -283h-198zM184 0v1423h211v-1423h-211z" />
<glyph unicode="&#xcd;" horiz-adv-x="579" d="M182 1548l297 283h260l-354 -283h-203zM184 0v1423h211v-1423h-211z" />
<glyph unicode="&#xce;" horiz-adv-x="579" d="M-86 1548l276 271h207l267 -271h-205l-166 164l-174 -164h-205zM184 0v1423h211v-1423h-211z" />
<glyph unicode="&#xcf;" horiz-adv-x="579" d="M2 1573v231h172v-231h-172zM184 0v1423h211v-1423h-211zM406 1573v231h169v-231h-169z" />
<glyph unicode="&#xd0;" horiz-adv-x="1501" d="M37 653v156h168v614h518q303 0 488.5 -190.5t185.5 -505.5q0 -210 -82.5 -374.5t-238.5 -258.5t-361 -94h-510v653h-168zM416 176h284q119 0 211 41t149 115.5t86.5 173t29.5 217.5q0 105 -28 196.5t-83 165.5t-148.5 117t-214.5 43h-286v-436h354v-156h-354v-477z" />
<glyph unicode="&#xd1;" horiz-adv-x="1527" d="M184 0v1423h275q59 -98 238.5 -392.5t302 -500t157.5 -274.5h2q-12 151 -12 637v530h196v-1423h-258q-601 1000 -710 1206h-4q12 -187 12 -663v-543h-199zM412 1565v51q0 109 45.5 156t132.5 47q55 0 121.5 -26.5t122 -52.5t84.5 -26q30 0 45.5 19t15.5 67v21h137v-43 q0 -119 -45.5 -169t-134.5 -50q-50 0 -114 26.5t-121.5 53t-90.5 26.5q-57 0 -57 -66v-34h-141z" />
<glyph unicode="&#xd2;" horiz-adv-x="1544" d="M106 711q0 154 45 287.5t129 232.5t213 156t287 57q198 0 348.5 -92.5t230 -256.5t79.5 -376q0 -150 -42.5 -282t-124.5 -234.5t-212.5 -162.5t-294.5 -60q-155 0 -281 56.5t-207.5 156t-125.5 232t-44 286.5zM328 717q0 -114 28.5 -214.5t82.5 -178t140 -122t193 -44.5 q93 0 168.5 30t126.5 81.5t85 123t49.5 152t15.5 170.5q0 115 -27.5 213.5t-81 174.5t-140 119.5t-196.5 43.5q-112 0 -199 -43.5t-139.5 -119.5t-79 -173.5t-26.5 -212.5zM367 1858h262l274 -283h-198z" />
<glyph unicode="&#xd3;" horiz-adv-x="1544" d="M106 711q0 154 45 287.5t129 232.5t213 156t287 57q198 0 348.5 -92.5t230 -256.5t79.5 -376q0 -150 -42.5 -282t-124.5 -234.5t-212.5 -162.5t-294.5 -60q-155 0 -281 56.5t-207.5 156t-125.5 232t-44 286.5zM328 717q0 -114 28.5 -214.5t82.5 -178t140 -122t193 -44.5 q93 0 168.5 30t126.5 81.5t85 123t49.5 152t15.5 170.5q0 115 -27.5 213.5t-81 174.5t-140 119.5t-196.5 43.5q-112 0 -199 -43.5t-139.5 -119.5t-79 -173.5t-26.5 -212.5zM651 1563l297 282h260l-354 -282h-203z" />
<glyph unicode="&#xd4;" horiz-adv-x="1544" d="M106 711q0 154 45 287.5t129 232.5t213 156t287 57q198 0 348.5 -92.5t230 -256.5t79.5 -376q0 -150 -42.5 -282t-124.5 -234.5t-212.5 -162.5t-294.5 -60q-155 0 -281 56.5t-207.5 156t-125.5 232t-44 286.5zM328 717q0 -114 28.5 -214.5t82.5 -178t140 -122t193 -44.5 q93 0 168.5 30t126.5 81.5t85 123t49.5 152t15.5 170.5q0 115 -27.5 213.5t-81 174.5t-140 119.5t-196.5 43.5q-112 0 -199 -43.5t-139.5 -119.5t-79 -173.5t-26.5 -212.5zM397 1554l277 271h207l266 -271h-205l-166 164l-174 -164h-205z" />
<glyph unicode="&#xd5;" horiz-adv-x="1544" d="M106 711q0 154 45 287.5t129 232.5t213 156t287 57q198 0 348.5 -92.5t230 -256.5t79.5 -376q0 -150 -42.5 -282t-124.5 -234.5t-212.5 -162.5t-294.5 -60q-155 0 -281 56.5t-207.5 156t-125.5 232t-44 286.5zM328 717q0 -114 28.5 -214.5t82.5 -178t140 -122t193 -44.5 q93 0 168.5 30t126.5 81.5t85 123t49.5 152t15.5 170.5q0 115 -27.5 213.5t-81 174.5t-140 119.5t-196.5 43.5q-112 0 -199 -43.5t-139.5 -119.5t-79 -173.5t-26.5 -212.5zM420 1573v51q0 109 45.5 156t132.5 47q55 0 121.5 -26.5t122 -52.5t84.5 -26q30 0 45.5 19t15.5 67 v21h137v-43q0 -119 -45.5 -169t-134.5 -50q-50 0 -114 26.5t-121.5 53t-90.5 26.5q-57 0 -57 -65v-35h-141z" />
<glyph unicode="&#xd6;" horiz-adv-x="1544" d="M106 711q0 154 45 287.5t129 232.5t213 156t287 57q198 0 348.5 -92.5t230 -256.5t79.5 -376q0 -150 -42.5 -282t-124.5 -234.5t-212.5 -162.5t-294.5 -60q-155 0 -281 56.5t-207.5 156t-125.5 232t-44 286.5zM328 717q0 -114 28.5 -214.5t82.5 -178t140 -122t193 -44.5 q93 0 168.5 30t126.5 81.5t85 123t49.5 152t15.5 170.5q0 115 -27.5 213.5t-81 174.5t-140 119.5t-196.5 43.5q-112 0 -199 -43.5t-139.5 -119.5t-79 -173.5t-26.5 -212.5zM485 1581v231h172v-231h-172zM889 1581v231h170v-231h-170z" />
<glyph unicode="&#xd7;" horiz-adv-x="1460" d="M176 123l438 455l-438 458l115 119l440 -457l440 457l115 -119l-438 -458l438 -455l-117 -123l-438 457l-438 -457z" />
<glyph unicode="&#xd8;" horiz-adv-x="1544" d="M106 711q0 151 46 284t130.5 233t213 158t284.5 58q194 0 350 -94l54 73h153l-108 -151q102 -97 157.5 -240.5t55.5 -312.5q0 -153 -42.5 -285t-124.5 -234.5t-213.5 -161t-297.5 -58.5q-219 0 -377 114l-68 -94h-153l127 178q-91 99 -139 237t-48 296zM319 717 q0 -214 99 -367l604 848q-106 72 -250 72t-247.5 -71.5t-154.5 -195t-51 -286.5zM500 252q116 -98 272 -98q93 0 169 29t128.5 80.5t88 122.5t51.5 153.5t16 175.5q0 246 -113 395z" />
<glyph unicode="&#xd9;" horiz-adv-x="1468" d="M170 567v856h213v-856q0 -116 29.5 -200t81.5 -128t111 -63.5t130 -19.5q81 0 142.5 20.5t109.5 66.5t73 127.5t25 196.5v856h211v-843q0 -598 -565 -598q-94 0 -174.5 18t-153 60.5t-123 108.5t-80.5 167t-30 231zM330 1831h262l274 -283h-198z" />
<glyph unicode="&#xda;" horiz-adv-x="1468" d="M170 567v856h213v-856q0 -116 29.5 -200t81.5 -128t111 -63.5t130 -19.5q81 0 142.5 20.5t109.5 66.5t73 127.5t25 196.5v856h211v-843q0 -598 -565 -598q-94 0 -174.5 18t-153 60.5t-123 108.5t-80.5 167t-30 231zM608 1548l297 283h260l-354 -283h-203z" />
<glyph unicode="&#xdb;" horiz-adv-x="1468" d="M170 567v856h213v-856q0 -116 29.5 -200t81.5 -128t111 -63.5t130 -19.5q81 0 142.5 20.5t109.5 66.5t73 127.5t25 196.5v856h211v-843q0 -598 -565 -598q-94 0 -174.5 18t-153 60.5t-123 108.5t-80.5 167t-30 231zM358 1563l277 270h207l266 -270h-205l-166 163 l-174 -163h-205z" />
<glyph unicode="&#xdc;" horiz-adv-x="1468" d="M170 567v856h213v-856q0 -116 29.5 -200t81.5 -128t111 -63.5t130 -19.5q81 0 142.5 20.5t109.5 66.5t73 127.5t25 196.5v856h211v-843q0 -598 -565 -598q-94 0 -174.5 18t-153 60.5t-123 108.5t-80.5 167t-30 231zM446 1573v231h172v-231h-172zM850 1573v231h170v-231 h-170z" />
<glyph unicode="&#xdd;" horiz-adv-x="1220" d="M-12 1423h241q354 -649 385 -710q52 108 394 710h225l-514 -868q-8 -16 -8 -37v-518h-213v518q0 21 -11 39zM489 1542l297 283h261l-355 -283h-203z" />
<glyph unicode="&#xde;" horiz-adv-x="1298" d="M184 0v1423h211v-276h320q121 0 215 -32t151.5 -89t87 -131t29.5 -162q0 -202 -133 -316t-367 -114h-303v-303h-211zM395 479h293q141 0 220 57t79 193q0 118 -77 180t-216 62h-299v-492z" />
<glyph unicode="&#xdf;" horiz-adv-x="1216" d="M147 0v1085q0 116 36 202.5t102 137t150 75t188 24.5q121 0 213.5 -34.5t145.5 -91.5t79.5 -123t28.5 -138q0 -33 -3 -68l-339 -231v-2l157 -111q137 -99 190.5 -185t53.5 -196q0 -162 -105.5 -262t-289.5 -100q-100 0 -182 26t-130 68v194q60 -62 142.5 -94.5 t160.5 -32.5q106 0 155.5 53t49.5 128q0 67 -35.5 121t-130.5 122l-182 129q-78 56 -78.5 119.5t80.5 118.5l281 194q1 30 -5.5 59t-25 61t-47 56.5t-77.5 40t-112 15.5q-130 0 -200 -65t-70 -222v-1073h-201z" />
<glyph unicode="&#xe0;" horiz-adv-x="1093" d="M80 295q0 171 128 256.5t365 85.5h172v84q0 38 -8 68t-28.5 60t-64.5 47t-109 17q-59 0 -100 -12.5t-62.5 -38t-31.5 -49t-17 -59.5h-195q6 62 28.5 114t68 99t126 74t189.5 26q401 0 401 -344v-487q0 -168 14 -236h-190q-11 31 -18 129q-79 -154 -316 -154 q-89 0 -159 27.5t-111 73.5t-61.5 102t-20.5 117zM166 1522h248l256 -312h-187zM285 307q0 -79 51 -128.5t141 -49.5q69 0 119.5 19t79 48.5t45.5 76.5t22 91.5t5 104.5v33h-160q-153 0 -228 -47t-75 -148z" />
<glyph unicode="&#xe1;" horiz-adv-x="1093" d="M80 295q0 171 128 256.5t365 85.5h172v84q0 38 -8 68t-28.5 60t-64.5 47t-109 17q-59 0 -100 -12.5t-62.5 -38t-31.5 -49t-17 -59.5h-195q6 62 28.5 114t68 99t126 74t189.5 26q401 0 401 -344v-487q0 -168 14 -236h-190q-11 31 -18 129q-79 -154 -316 -154 q-89 0 -159 27.5t-111 73.5t-61.5 102t-20.5 117zM285 307q0 -79 51 -128.5t141 -49.5q69 0 119.5 19t79 48.5t45.5 76.5t22 91.5t5 104.5v33h-160q-153 0 -228 -47t-75 -148zM416 1210l258 312h246l-318 -312h-186z" />
<glyph unicode="&#xe2;" horiz-adv-x="1093" d="M80 295q0 171 128 256.5t365 85.5h172v84q0 38 -8 68t-28.5 60t-64.5 47t-109 17q-59 0 -100 -12.5t-62.5 -38t-31.5 -49t-17 -59.5h-195q6 62 28.5 114t68 99t126 74t189.5 26q401 0 401 -344v-487q0 -168 14 -236h-190q-11 31 -18 129q-79 -154 -316 -154 q-89 0 -159 27.5t-111 73.5t-61.5 102t-20.5 117zM227 1192l228 309h186l229 -309h-192l-131 197l-129 -197h-191zM285 307q0 -79 51 -128.5t141 -49.5q69 0 119.5 19t79 48.5t45.5 76.5t22 91.5t5 104.5v33h-160q-153 0 -228 -47t-75 -148z" />
<glyph unicode="&#xe3;" horiz-adv-x="1093" d="M80 295q0 171 128 256.5t365 85.5h172v84q0 38 -8 68t-28.5 60t-64.5 47t-109 17q-59 0 -100 -12.5t-62.5 -38t-31.5 -49t-17 -59.5h-195q6 62 28.5 114t68 99t126 74t189.5 26q401 0 401 -344v-487q0 -168 14 -236h-190q-11 31 -18 129q-79 -154 -316 -154 q-89 0 -159 27.5t-111 73.5t-61.5 102t-20.5 117zM223 1233v51q0 203 172 203q50 0 106 -24.5t103 -49t76 -24.5t43 18t14 63v21h135v-45q0 -215 -176 -215q-51 0 -103.5 24.5t-98 49t-78.5 24.5q-54 0 -54 -63v-33h-139zM285 307q0 -79 51 -128.5t141 -49.5q69 0 119.5 19 t79 48.5t45.5 76.5t22 91.5t5 104.5v33h-160q-153 0 -228 -47t-75 -148z" />
<glyph unicode="&#xe4;" horiz-adv-x="1093" d="M80 295q0 171 128 256.5t365 85.5h172v84q0 38 -8 68t-28.5 60t-64.5 47t-109 17q-59 0 -100 -12.5t-62.5 -38t-31.5 -49t-17 -59.5h-195q6 62 28.5 114t68 99t126 74t189.5 26q401 0 401 -344v-487q0 -168 14 -236h-190q-11 31 -18 129q-79 -154 -316 -154 q-89 0 -159 27.5t-111 73.5t-61.5 102t-20.5 117zM272 1270v231h172v-231h-172zM285 307q0 -79 51 -128.5t141 -49.5q69 0 119.5 19t79 48.5t45.5 76.5t22 91.5t5 104.5v33h-160q-153 0 -228 -47t-75 -148zM653 1270v231h170v-231h-170z" />
<glyph unicode="&#xe5;" horiz-adv-x="1093" d="M80 295q0 171 128 256.5t365 85.5h172v84q0 38 -8 68t-28.5 60t-64.5 47t-109 17q-59 0 -100 -12.5t-62.5 -38t-31.5 -49t-17 -59.5h-195q6 62 28.5 114t68 99t126 74t189.5 26q401 0 401 -344v-487q0 -168 14 -236h-190q-11 31 -18 129q-79 -154 -316 -154 q-89 0 -159 27.5t-111 73.5t-61.5 102t-20.5 117zM285 307q0 -79 51 -128.5t141 -49.5q69 0 119.5 19t79 48.5t45.5 76.5t22 91.5t5 104.5v33h-160q-153 0 -228 -47t-75 -148zM326 1362q0 86 60.5 144.5t162.5 58.5t162.5 -57t60.5 -144q0 -88 -61.5 -145.5t-161.5 -57.5 q-102 0 -162.5 57t-60.5 144zM444 1366q0 -44 26.5 -75t78.5 -31q50 0 77 29.5t27 72.5t-27 74.5t-77 31.5q-52 0 -78.5 -30t-26.5 -72z" />
<glyph unicode="&#xe6;" horiz-adv-x="1748" d="M80 297q0 61 18 110t47.5 83t74.5 59.5t91.5 40.5t105.5 24t111 12t113 3h113v86q0 200 -199 200q-101 0 -148.5 -41.5t-60.5 -121.5h-213q12 147 117.5 229t290.5 82q133 0 221.5 -40.5t122.5 -117.5q49 69 137.5 113.5t210.5 44.5q91 0 166.5 -27.5t125.5 -73 t84.5 -107.5t50 -129t15.5 -138q0 -17 -1 -51t-1 -48h-729q-2 -161 72.5 -256.5t204.5 -95.5q100 0 155 40t86 120h201q-14 -49 -35 -91.5t-57.5 -85.5t-84.5 -73t-118.5 -48.5t-155.5 -18.5q-148 0 -243 56.5t-142 139.5q-112 -196 -381 -196q-176 0 -271 91.5t-95 225.5z M283 307q0 -70 54.5 -119t145.5 -49q147 0 209 83.5t62 244.5v22h-123q-84 0 -143.5 -7.5t-108 -27t-72.5 -56t-24 -91.5zM948 629h529q-3 124 -66 200.5t-188 77.5q-121 1 -192 -71.5t-83 -206.5z" />
<glyph unicode="&#xe7;" horiz-adv-x="1048" d="M80 516q0 112 32 211.5t91.5 175.5t152.5 120t207 44q88 0 161 -24.5t119 -61.5t78.5 -85.5t47 -93t18.5 -87.5h-199q-42 186 -229 186q-129 0 -200.5 -102.5t-71.5 -276.5q0 -177 70 -280t196 -103q173 0 235 183h199q-15 -62 -40.5 -114.5t-65.5 -99.5t-99.5 -79 t-134.5 -45l-69 -86q33 -6 62 -17.5t61.5 -32.5t51.5 -58t19 -85q0 -59 -24 -101t-65 -63t-82.5 -30t-88.5 -9q-94 0 -150 25v129q23 -8 64.5 -14.5t65.5 -6.5q106 0 106 68q0 84 -205 88v59l99 127q-193 20 -302.5 164t-109.5 375z" />
<glyph unicode="&#xe8;" horiz-adv-x="1083" d="M78 510q0 119 30 219.5t88 176t150.5 118.5t210.5 43q98 0 177 -30t129.5 -79t84.5 -115t48 -134t14 -140q0 -57 -4 -86h-725q2 -152 73.5 -247t196.5 -95q56 0 98 12.5t68.5 36.5t41.5 47t29 56h203q-14 -45 -33.5 -85t-56.5 -84t-83.5 -75.5t-117 -52.5t-155.5 -21 q-96 0 -175 30t-132.5 80.5t-90 119.5t-53 145.5t-16.5 159.5zM174 1522h248l256 -312h-186zM287 621h520q-2 128 -66 209t-186 81q-241 0 -268 -290z" />
<glyph unicode="&#xe9;" horiz-adv-x="1083" d="M78 510q0 119 30 219.5t88 176t150.5 118.5t210.5 43q98 0 177 -30t129.5 -79t84.5 -115t48 -134t14 -140q0 -57 -4 -86h-725q2 -152 73.5 -247t196.5 -95q56 0 98 12.5t68.5 36.5t41.5 47t29 56h203q-14 -45 -33.5 -85t-56.5 -84t-83.5 -75.5t-117 -52.5t-155.5 -21 q-96 0 -175 30t-132.5 80.5t-90 119.5t-53 145.5t-16.5 159.5zM287 621h520q-2 128 -66 209t-186 81q-241 0 -268 -290zM422 1210l258 312h246l-318 -312h-186z" />
<glyph unicode="&#xea;" horiz-adv-x="1083" d="M78 510q0 119 30 219.5t88 176t150.5 118.5t210.5 43q98 0 177 -30t129.5 -79t84.5 -115t48 -134t14 -140q0 -57 -4 -86h-725q2 -152 73.5 -247t196.5 -95q56 0 98 12.5t68.5 36.5t41.5 47t29 56h203q-14 -45 -33.5 -85t-56.5 -84t-83.5 -75.5t-117 -52.5t-155.5 -21 q-96 0 -175 30t-132.5 80.5t-90 119.5t-53 145.5t-16.5 159.5zM242 1192l227 309h186l230 -309h-193l-131 197l-129 -197h-190zM287 621h520q-2 128 -66 209t-186 81q-241 0 -268 -290z" />
<glyph unicode="&#xeb;" horiz-adv-x="1083" d="M78 510q0 119 30 219.5t88 176t150.5 118.5t210.5 43q98 0 177 -30t129.5 -79t84.5 -115t48 -134t14 -140q0 -57 -4 -86h-725q2 -152 73.5 -247t196.5 -95q56 0 98 12.5t68.5 36.5t41.5 47t29 56h203q-14 -45 -33.5 -85t-56.5 -84t-83.5 -75.5t-117 -52.5t-155.5 -21 q-96 0 -175 30t-132.5 80.5t-90 119.5t-53 145.5t-16.5 159.5zM274 1270v231h172v-231h-172zM287 621h520q-2 128 -66 209t-186 81q-241 0 -268 -290zM655 1270v231h170v-231h-170z" />
<glyph unicode="&#xec;" horiz-adv-x="499" d="M-158 1522h248l256 -312h-186zM150 0v1042h200v-1042h-200z" />
<glyph unicode="&#xed;" horiz-adv-x="499" d="M150 0v1042h200v-1042h-200zM150 1210l258 312h245l-317 -312h-186z" />
<glyph unicode="&#xee;" horiz-adv-x="499" d="M-72 1192l228 309h186l229 -309h-192l-131 197l-129 -197h-191zM150 0v1042h200v-1042h-200z" />
<glyph unicode="&#xef;" horiz-adv-x="499" d="M-27 1270v231h172v-231h-172zM150 0v1042h200v-1042h-200zM354 1270v231h170v-231h-170z" />
<glyph unicode="&#xf0;" horiz-adv-x="1114" d="M74 506q0 238 137.5 378t349.5 140q120 0 205 -61q-65 159 -205 262l-254 -174l-61 98l207 141q-111 52 -242 78v156q220 -27 397 -127l219 151l60 -100l-176 -121q155 -120 239 -305t84 -428q0 -157 -37 -277.5t-103.5 -194t-155 -110.5t-195.5 -37q-146 0 -253.5 71 t-161.5 190t-54 270zM276 498q0 -150 74.5 -253.5t202.5 -103.5q138 0 208 113.5t70 310.5q0 132 -63.5 212.5t-204.5 80.5q-133 0 -210 -101t-77 -259z" />
<glyph unicode="&#xf1;" horiz-adv-x="1169" d="M147 1042h197q8 -62 8 -163q85 188 322 188q157 0 252.5 -100t95.5 -297v-670h-201v645q0 252 -211 252q-132 0 -195 -90t-63 -250v-557h-202v780q0 142 -3 262zM254 1241v51q0 203 172 203q50 0 106 -24.5t103 -49t76 -24.5t43 18.5t14 63.5v20h135v-45 q0 -215 -176 -215q-51 0 -103.5 24.5t-98.5 49t-79 24.5q-53 0 -53 -63v-33h-139z" />
<glyph unicode="&#xf2;" horiz-adv-x="1136" d="M78 520q0 239 133 393t364 154q219 0 351.5 -149t132.5 -394q0 -115 -32.5 -214.5t-94 -174t-156.5 -117.5t-213 -43q-148 0 -259 71t-168.5 194t-57.5 280zM188 1522h248l256 -312h-186zM285 522q0 -170 77 -275.5t209 -105.5q133 0 208 102.5t75 276.5 q0 176 -75.5 278.5t-211.5 102.5t-209 -101t-73 -278z" />
<glyph unicode="&#xf3;" horiz-adv-x="1136" d="M78 520q0 239 133 393t364 154q219 0 351.5 -149t132.5 -394q0 -115 -32.5 -214.5t-94 -174t-156.5 -117.5t-213 -43q-148 0 -259 71t-168.5 194t-57.5 280zM285 522q0 -170 77 -275.5t209 -105.5q133 0 208 102.5t75 276.5q0 176 -75.5 278.5t-211.5 102.5t-209 -101 t-73 -278zM438 1210l258 312h246l-317 -312h-187z" />
<glyph unicode="&#xf4;" horiz-adv-x="1136" d="M78 520q0 239 133 393t364 154q219 0 351.5 -149t132.5 -394q0 -115 -32.5 -214.5t-94 -174t-156.5 -117.5t-213 -43q-148 0 -259 71t-168.5 194t-57.5 280zM246 1192l227 309h186l230 -309h-193l-131 197l-129 -197h-190zM285 522q0 -170 77 -275.5t209 -105.5 q133 0 208 102.5t75 276.5q0 176 -75.5 278.5t-211.5 102.5t-209 -101t-73 -278z" />
<glyph unicode="&#xf5;" horiz-adv-x="1136" d="M78 520q0 239 133 393t364 154q219 0 351.5 -149t132.5 -394q0 -115 -32.5 -214.5t-94 -174t-156.5 -117.5t-213 -43q-148 0 -259 71t-168.5 194t-57.5 280zM242 1233v51q0 203 172 203q50 0 105.5 -24.5t102.5 -49t76 -24.5t43.5 18t14.5 63v21h135v-45 q0 -215 -176 -215q-51 0 -103.5 24.5t-98.5 49t-79 24.5q-53 0 -53 -63v-33h-139zM285 522q0 -170 77 -275.5t209 -105.5q133 0 208 102.5t75 276.5q0 176 -75.5 278.5t-211.5 102.5t-209 -101t-73 -278z" />
<glyph unicode="&#xf6;" horiz-adv-x="1136" d="M78 520q0 239 133 393t364 154q219 0 351.5 -149t132.5 -394q0 -115 -32.5 -214.5t-94 -174t-156.5 -117.5t-213 -43q-148 0 -259 71t-168.5 194t-57.5 280zM285 522q0 -170 77 -275.5t209 -105.5q133 0 208 102.5t75 276.5q0 176 -75.5 278.5t-211.5 102.5t-209 -101 t-73 -278zM291 1270v231h172v-231h-172zM672 1270v231h170v-231h-170z" />
<glyph unicode="&#xf7;" horiz-adv-x="1460" d="M168 489v175h1124v-175h-1124zM641 0v268h176v-268h-176zM641 877v272h176v-272h-176z" />
<glyph unicode="&#xf8;" horiz-adv-x="1136" d="M76 518q0 252 140 400.5t362 148.5q158 0 268 -78l47 66h127l-96 -133q137 -146 137 -402q0 -249 -137 -398t-363 -149q-151 0 -266 76l-49 -69h-127l98 137q-141 150 -141 401zM274 522q0 -147 56 -248l415 576q-70 61 -178 61q-140 0 -216.5 -104.5t-76.5 -284.5z M397 190q74 -61 172 -61q135 0 214 104t79 285q0 156 -51 248z" />
<glyph unicode="&#xf9;" horiz-adv-x="1150" d="M145 358v684h201v-641q0 -254 205 -254q135 0 192.5 81t57.5 270v544h200v-739q0 -54 1.5 -163.5t1.5 -139.5h-197q-6 40 -6 150q-82 -175 -309 -175q-72 0 -132 20t-109.5 63t-77.5 119.5t-28 180.5zM195 1522h247l256 -312h-186z" />
<glyph unicode="&#xfa;" horiz-adv-x="1150" d="M145 358v684h201v-641q0 -254 205 -254q135 0 192.5 81t57.5 270v544h200v-739q0 -54 1.5 -163.5t1.5 -139.5h-197q-6 40 -6 150q-82 -175 -309 -175q-72 0 -132 20t-109.5 63t-77.5 119.5t-28 180.5zM453 1210l258 312h245l-317 -312h-186z" />
<glyph unicode="&#xfb;" horiz-adv-x="1150" d="M145 358v684h201v-641q0 -254 205 -254q135 0 192.5 81t57.5 270v544h200v-739q0 -54 1.5 -163.5t1.5 -139.5h-197q-6 40 -6 150q-82 -175 -309 -175q-72 0 -132 20t-109.5 63t-77.5 119.5t-28 180.5zM254 1192l227 309h187l229 -309h-192l-132 197l-129 -197h-190z" />
<glyph unicode="&#xfc;" horiz-adv-x="1150" d="M145 358v684h201v-641q0 -254 205 -254q135 0 192.5 81t57.5 270v544h200v-739q0 -54 1.5 -163.5t1.5 -139.5h-197q-6 40 -6 150q-82 -175 -309 -175q-72 0 -132 20t-109.5 63t-77.5 119.5t-28 180.5zM299 1270v231h172v-231h-172zM680 1270v231h170v-231h-170z" />
<glyph unicode="&#xfd;" horiz-adv-x="999" d="M18 1042h218q231 -688 276 -862h2q53 202 264 862h203l-371 -1087q-78 -229 -159 -306t-246 -77q-53 0 -117 6v172q41 -6 84 -6q94 0 143 46.5t93 170.5zM373 1210l258 312h246l-318 -312h-186z" />
<glyph unicode="&#xfe;" horiz-adv-x="1177" d="M150 -418v1919h200v-614q97 176 328 176q90 0 167 -35t133.5 -100.5t88.5 -163.5t33 -219q0 -265 -132 -416.5t-333 -151.5q-200 0 -285 144v-539h-200zM340 522q0 -375 270 -375q132 0 207.5 103t75.5 287q0 168 -73.5 263t-196.5 95q-96 0 -161 -51t-93.5 -133 t-28.5 -189z" />
<glyph unicode="&#xff;" horiz-adv-x="999" d="M18 1042h218q231 -688 276 -862h2q53 202 264 862h203l-371 -1087q-78 -229 -159 -306t-246 -77q-53 0 -117 6v172q41 -6 84 -6q94 0 143 46.5t93 170.5zM223 1270v231h172v-231h-172zM604 1270v231h170v-231h-170z" />
<glyph unicode="&#x152;" horiz-adv-x="2091" d="M106 711q0 118 32 226.5t96 199.5t155 158t215.5 105t269.5 38q151 0 275 -15h836v-184h-695v-403h660v-185h-660v-469h731l-26 -182h-862q-147 -18 -283 -18q-180 0 -323 55.5t-234 154.5t-139 231t-48 288zM328 717q0 -261 146 -410t388 -149q141 0 219 16v1069 q-61 19 -211 19q-245 0 -393.5 -142.5t-148.5 -402.5z" />
<glyph unicode="&#x153;" horiz-adv-x="1863" d="M78 520q0 239 133 393t364 154q125 0 223.5 -53.5t159.5 -151.5q58 96 153.5 150.5t223.5 54.5q95 0 172.5 -29.5t129 -77.5t86.5 -112.5t50 -132t15 -137.5q0 -66 -2 -95h-725q0 -152 73 -247t197 -95q100 0 154 42t84 110h203q-14 -44 -34.5 -84.5t-58 -84.5t-84.5 -76 t-117.5 -52.5t-152.5 -20.5q-128 0 -221.5 55.5t-149.5 149.5q-63 -96 -162 -150.5t-229 -54.5q-148 0 -259 71t-168.5 194t-57.5 280zM285 522q0 -170 77 -275.5t209 -105.5q133 0 208 102.5t75 276.5q0 176 -75.5 278.5t-211.5 102.5t-209 -101t-73 -278zM1067 621h518 q-2 128 -67.5 208.5t-184.5 81.5q-122 1 -187.5 -76.5t-78.5 -213.5z" />
<glyph unicode="&#x178;" horiz-adv-x="1220" d="M-12 1423h241q354 -649 385 -710q52 108 394 710h225l-514 -868q-8 -16 -8 -37v-518h-213v518q0 21 -11 39zM324 1569v231h172v-231h-172zM727 1569v231h170v-231h-170z" />
<glyph unicode="&#x2c6;" d="M88 1192l227 309h187l229 -309h-192l-131 197l-129 -197h-191z" />
<glyph unicode="&#x2dc;" d="M84 1233v51q0 203 172 203q50 0 106 -24.5t103 -49t76 -24.5t43 18t14 63v21h135v-45q0 -215 -176 -215q-51 0 -103.5 24.5t-98.5 49t-79 24.5q-53 0 -53 -63v-33h-139z" />
<glyph unicode="&#x2000;" horiz-adv-x="951" />
<glyph unicode="&#x2001;" horiz-adv-x="1903" />
<glyph unicode="&#x2002;" horiz-adv-x="951" />
<glyph unicode="&#x2003;" horiz-adv-x="1903" />
<glyph unicode="&#x2004;" horiz-adv-x="634" />
<glyph unicode="&#x2005;" horiz-adv-x="475" />
<glyph unicode="&#x2006;" horiz-adv-x="317" />
<glyph unicode="&#x2007;" horiz-adv-x="317" />
<glyph unicode="&#x2008;" horiz-adv-x="237" />
<glyph unicode="&#x2009;" horiz-adv-x="380" />
<glyph unicode="&#x200a;" horiz-adv-x="105" />
<glyph unicode="&#x2010;" horiz-adv-x="776" d="M117 434v180h542v-180h-542z" />
<glyph unicode="&#x2011;" horiz-adv-x="776" d="M117 434v180h542v-180h-542z" />
<glyph unicode="&#x2012;" horiz-adv-x="776" d="M117 434v180h542v-180h-542z" />
<glyph unicode="&#x2013;" horiz-adv-x="1046" d="M117 438v174h813v-174h-813z" />
<glyph unicode="&#x2014;" horiz-adv-x="1740" d="M117 438v174h1507v-174h-1507z" />
<glyph unicode="&#x2018;" horiz-adv-x="438" d="M76 948q9 132 48.5 291.5t88.5 261.5h166q-39 -129 -65 -286.5t-29 -266.5h-209z" />
<glyph unicode="&#x2019;" horiz-adv-x="438" d="M59 948q40 128 66 285t29 268h211q-9 -131 -49.5 -290t-90.5 -263h-166z" />
<glyph unicode="&#x201a;" horiz-adv-x="438" d="M59 -270q40 128 66 285t29 268h211q-9 -131 -49.5 -290t-90.5 -263h-166z" />
<glyph unicode="&#x201c;" d="M76 934q7 125 50 289.5t91 263.5h156q-40 -131 -65.5 -287t-28.5 -266h-203zM449 934q6 132 49.5 295t91.5 258h153q-41 -133 -65 -283.5t-27 -269.5h-202z" />
<glyph unicode="&#x201d;" d="M76 948q41 134 66 285.5t28 267.5h203q-7 -129 -51 -292t-91 -261h-155zM449 948q38 133 63.5 288.5t28.5 264.5h202q-7 -126 -49 -290.5t-90 -262.5h-155z" />
<glyph unicode="&#x201e;" horiz-adv-x="774" d="M59 -270q41 135 66.5 285.5t28.5 267.5h202q-7 -130 -51 -294t-90 -259h-156zM430 -270q40 131 65.5 287t28.5 266h203q-7 -124 -49.5 -288.5t-89.5 -264.5h-158z" />
<glyph unicode="&#x2022;" horiz-adv-x="784" d="M184 309v428h416v-428h-416z" />
<glyph unicode="&#x2026;" horiz-adv-x="1755" d="M137 0v313h213v-313h-213zM729 0v313h213v-313h-213zM1317 0v313h213v-313h-213z" />
<glyph unicode="&#x202f;" horiz-adv-x="380" />
<glyph unicode="&#x2039;" horiz-adv-x="763" d="M115 532l346 398h186l-340 -398l342 -401h-188z" />
<glyph unicode="&#x203a;" horiz-adv-x="763" d="M115 131l342 397l-342 402h186l348 -402l-348 -397h-186z" />
<glyph unicode="&#x205f;" horiz-adv-x="475" />
<glyph unicode="&#x20ac;" horiz-adv-x="1120" d="M55 496v131h115v45q0 53 2 78h-117v131h131q37 235 159 362t306 127q96 0 173.5 -31t125 -82.5t75 -110t34.5 -120.5h-197q-24 83 -79 130.5t-140 47.5q-214 0 -260 -323h369v-131h-379q-2 -23 -2 -70v-53h381v-131h-371q43 -349 264 -349q154 0 217 177h197 q-39 -165 -147 -256t-271 -91q-199 0 -315 135.5t-146 383.5h-125z" />
<glyph unicode="&#x2122;" horiz-adv-x="993" d="M-20 1325v98h438v-98h-162v-389h-113v389h-163zM477 936v487h172l109 -329l114 329h162v-487h-106v147q0 147 10 260h-4l-137 -405h-95l-124 405h-5q6 -71 9 -274v-133h-105z" />
<glyph unicode="&#x25fc;" horiz-adv-x="1044" d="M0 0v1044h1044v-1044h-1044z" />
<glyph unicode="&#xfb01;" horiz-adv-x="1110" d="M18 883v159h164v119q0 77 16.5 140t52 114t97 79t144.5 28q77 0 118 -13v-168q-34 9 -86 9q-76 0 -108.5 -47t-32.5 -156v-105h205v-159h-205v-883h-201v883h-164zM760 0v1042h201v-1042h-201zM760 1270v231h201v-231h-201z" />
<glyph unicode="&#xfb02;" horiz-adv-x="1107" d="M18 883v159h164v119q0 77 16.5 140t52 114t97 79t144.5 28q77 0 118 -13v-168q-34 9 -86 9q-76 0 -108.5 -47t-32.5 -156v-105h205v-159h-205v-883h-201v883h-164zM758 0v1501h200v-1501h-200z" />
</font>
</defs>
</svg>
